# xmcd CD database file
#
# Track frame offsets:
#	150
#	13047
#	36471
#	57273
#	76646
#	95041
#	111552
#	130088
#	147454
#
# Disc length: 2262 seconds
#
# Revision: 0
# Processed by: cddbd v1.5.1PL2 Copyright (c) Steve Scherf et al.
# Submitted via: CDex 1.51
#
DISCID=7c08d409
DTITLE=ソライヌ - 糸
DYEAR=2005
DGENRE=Pop
TTITLE0=糸
TTITLE1=やわらかなつきのように
TTITLE2=ザクロの生る木
TTITLE3=朝夢
TTITLE4=ボイス
TTITLE5=星の降る頃
TTITLE6=火傷
TTITLE7=スクロール
TTITLE8=アシンメトリー
EXTD=YEAR: 2005
EXTT0=
EXTT1=
EXTT2=
EXTT3=
EXTT4=
EXTT5=
EXTT6=
EXTT7=
EXTT8=
PLAYORDER=
